# xmcd
#
# Track frame offsets:
#	150
#	13242
#	27458
#	41511
#	58009
#	73917
#	93772
#	108997
#	137183
#	152521
#
# Disc length: 2298 seconds
#
# Revision: 1
# Processed by: cddbd v1.5.2PL0 Copyright (c) Steve Scherf et al.
# Submitted via: audiograbber 1.83.01
#
DISCID=8408f80a
DTITLE=Outlaw Jim and the Whiskey Benders - Armed and Hammered
DYEAR=2009
DGENRE=
TTITLE0=Sobered Up and Busted
TTITLE1=Can't Stop a Train
TTITLE2=Born an Outlaw
TTITLE3=Drinkin' Weekend
TTITLE4=Promise Land
TTITLE5=Lonesome
TTITLE6=Dirty Swamp Boogie
TTITLE7=Destiny Road
TTITLE8=Sissy Love Song
TTITLE9=Honky Tonk Habit
EXTD=
EXTT0=
EXTT1=
EXTT2=
EXTT3=
EXTT4=
EXTT5=
EXTT6=
EXTT7=
EXTT8=
EXTT9=
PLAYORDER=
